<svg xmlns="http://www.w3.org/2000/svg" xmlns:xlink="http://www.w3.org/1999/xlink" width="1587" zoomAndPan="magnify" viewBox="0 0 1190.25 842.249979" height="1123" preserveAspectRatio="xMidYMid meet" version="1.0"><defs><g/><clipPath id="39e5ca2056"><path d="M 91.960938 84.113281 L 1105.808594 84.113281 L 1105.808594 469.269531 L 91.960938 469.269531 Z M 91.960938 84.113281 " clip-rule="nonzero"/></clipPath></defs><g clip-path="url(#39e5ca2056)"><path fill="#e4c590" d="M 989.261719 84.304688 L 978.144531 84.304688 C 965.722656 192.199219 887.253906 265.179688 861.226562 286.625 C 876.660156 353.847656 915.371094 396.351562 915.371094 396.351562 L 812.050781 395.4375 L 810.484375 385.890625 L 878.882812 382.75 C 838.078125 307.160156 836.378906 194.425781 839.125 132.824219 L 830.886719 132.824219 C 809.4375 230.519531 738.160156 287.671875 693.300781 308.335938 L 740.121094 392.953125 C 738.421875 391.121094 628.957031 273.941406 599.792969 185.269531 C 599.398438 184.222656 599.136719 183.175781 598.746094 182.128906 C 598.484375 183.175781 598.09375 184.222656 597.699219 185.269531 C 568.664062 273.941406 459.070312 391.121094 457.371094 392.953125 L 504.191406 308.335938 C 459.332031 287.671875 388.054688 230.652344 366.605469 132.824219 L 358.367188 132.824219 C 361.113281 194.554688 359.542969 307.160156 318.609375 382.75 L 387.007812 385.890625 L 385.4375 395.4375 L 286.699219 392.558594 C 286.699219 392.558594 320.964844 353.71875 336.394531 286.496094 C 310.5 265.046875 232.03125 192.070312 219.476562 84.175781 L 208.359375 84.175781 C 202.605469 171.40625 179.980469 360.78125 91.960938 462.527344 L 91.960938 469.199219 L 496.210938 469.199219 C 552.710938 413.484375 586.976562 351.363281 598.746094 282.832031 C 605.9375 347.046875 644.910156 408.777344 701.28125 469.199219 L 1105.527344 469.199219 L 1105.527344 462.527344 C 1017.644531 360.910156 995.015625 171.539062 989.261719 84.304688 Z M 989.261719 84.304688 " fill-opacity="1" fill-rule="nonzero"/></g><g fill="#ffffff" fill-opacity="1"><g transform="translate(101.76679, 597.890443)"><g><path d="M 5.609375 0.171875 C 5.492188 0.171875 5.4375 -0.28125 5.4375 -1.1875 C 5.4375 -1.976562 5.492188 -2.375 5.609375 -2.375 L 7.484375 -2.375 C 9.972656 -2.375 11.925781 -2.710938 13.34375 -3.390625 C 14.757812 -4.078125 15.832031 -5.523438 16.5625 -7.734375 C 17.300781 -9.941406 17.785156 -13.3125 18.015625 -17.84375 C 18.242188 -22.375 18.359375 -28.4375 18.359375 -36.03125 L 18.359375 -83.609375 C 18.359375 -91.304688 18.242188 -97.390625 18.015625 -101.859375 C 17.785156 -106.335938 17.300781 -109.679688 16.5625 -111.890625 C 15.832031 -114.097656 14.757812 -115.539062 13.34375 -116.21875 C 11.925781 -116.90625 9.972656 -117.25 7.484375 -117.25 L 5.609375 -117.25 C 5.492188 -117.25 5.4375 -117.703125 5.4375 -118.609375 C 5.4375 -119.398438 5.492188 -119.796875 5.609375 -119.796875 L 58.28125 -119.796875 C 72.78125 -119.796875 83.425781 -117.21875 90.21875 -112.0625 C 97.019531 -106.90625 100.421875 -98.890625 100.421875 -88.015625 C 100.421875 -79.523438 98.320312 -72.726562 94.125 -67.625 C 89.9375 -62.53125 83.484375 -59.019531 74.765625 -57.09375 L 104 -13.765625 C 106.375 -10.367188 108.039062 -8.019531 109 -6.71875 C 109.96875 -5.414062 111.015625 -4.675781 112.140625 -4.5 C 113.273438 -4.332031 115.144531 -4.25 117.75 -4.25 L 118.609375 -4.25 L 118.609375 0 L 111.125 0.171875 C 105.6875 0.171875 101.296875 0.171875 97.953125 0.171875 C 94.617188 0.171875 91.988281 -0.0507812 90.0625 -0.5 C 88.132812 -0.957031 86.460938 -1.78125 85.046875 -2.96875 C 83.628906 -4.164062 82.128906 -5.953125 80.546875 -8.328125 C 78.960938 -10.703125 76.863281 -13.875 74.25 -17.84375 L 49.953125 -55.0625 L 40.109375 -55.0625 L 40.109375 -36.03125 C 40.109375 -28.4375 40.21875 -22.375 40.4375 -17.84375 C 40.664062 -13.3125 41.117188 -9.941406 41.796875 -7.734375 C 42.484375 -5.523438 43.5625 -4.078125 45.03125 -3.390625 C 46.5 -2.710938 48.484375 -2.375 50.984375 -2.375 L 52.84375 -2.375 C 52.84375 -2.375 52.867188 -2.289062 52.921875 -2.125 C 52.984375 -1.957031 53.015625 -1.644531 53.015625 -1.1875 C 53.015625 -0.738281 52.984375 -0.398438 52.921875 -0.171875 C 52.867188 0.0546875 52.84375 0.171875 52.84375 0.171875 Z M 40.109375 -60.5 L 54.546875 -60.5 C 62.472656 -60.5 68.304688 -62.734375 72.046875 -67.203125 C 75.785156 -71.679688 77.65625 -78.617188 77.65625 -88.015625 C 77.65625 -97.078125 76.097656 -103.734375 72.984375 -107.984375 C 69.867188 -112.234375 64.96875 -114.359375 58.28125 -114.359375 L 40.109375 -114.359375 Z M 40.109375 -60.5 "/></g></g></g><g fill="#ffffff" fill-opacity="1"><g transform="translate(220.192593, 597.890443)"><g><path d="M 62.875 0.84375 C 48.9375 0.84375 37.890625 -1.617188 29.734375 -6.546875 C 21.578125 -11.472656 15.769531 -18.46875 12.3125 -27.53125 C 8.863281 -36.59375 7.140625 -47.410156 7.140625 -59.984375 C 7.140625 -72.554688 8.863281 -83.375 12.3125 -92.4375 C 15.769531 -101.5 21.578125 -108.492188 29.734375 -113.421875 C 37.890625 -118.347656 48.9375 -120.8125 62.875 -120.8125 C 76.800781 -120.8125 87.816406 -118.347656 95.921875 -113.421875 C 104.023438 -108.492188 109.800781 -101.5 113.25 -92.4375 C 116.707031 -83.375 118.4375 -72.554688 118.4375 -59.984375 C 118.4375 -47.410156 116.707031 -36.59375 113.25 -27.53125 C 109.800781 -18.46875 104.023438 -11.472656 95.921875 -6.546875 C 87.816406 -1.617188 76.800781 0.84375 62.875 0.84375 Z M 62.875 -4.59375 C 70.914062 -4.59375 77.226562 -6.828125 81.8125 -11.296875 C 86.40625 -15.773438 89.691406 -22.175781 91.671875 -30.5 C 93.648438 -38.820312 94.640625 -48.648438 94.640625 -59.984375 C 94.640625 -71.421875 93.648438 -81.273438 91.671875 -89.546875 C 89.691406 -97.816406 86.40625 -104.1875 81.8125 -108.65625 C 77.226562 -113.132812 70.914062 -115.375 62.875 -115.375 C 54.832031 -115.375 48.488281 -113.132812 43.84375 -108.65625 C 39.195312 -104.1875 35.878906 -97.816406 33.890625 -89.546875 C 31.910156 -81.273438 30.921875 -71.421875 30.921875 -59.984375 C 30.921875 -48.648438 31.910156 -38.820312 33.890625 -30.5 C 35.878906 -22.175781 39.195312 -15.773438 43.84375 -11.296875 C 48.488281 -6.828125 54.832031 -4.59375 62.875 -4.59375 Z M 62.875 -4.59375 "/></g></g></g><g fill="#ffffff" fill-opacity="1"><g transform="translate(347.113792, 597.890443)"><g><path d="M 5.609375 0 C 5.492188 0 5.4375 -0.453125 5.4375 -1.359375 C 5.4375 -2.148438 5.492188 -2.546875 5.609375 -2.546875 L 7.484375 -2.546875 C 9.972656 -2.546875 11.925781 -2.882812 13.34375 -3.5625 C 14.757812 -4.25 15.832031 -5.695312 16.5625 -7.90625 C 17.300781 -10.113281 17.785156 -13.484375 18.015625 -18.015625 C 18.242188 -22.546875 18.359375 -28.601562 18.359375 -36.1875 L 18.359375 -83.765625 C 18.359375 -91.472656 18.242188 -97.5625 18.015625 -102.03125 C 17.785156 -106.507812 17.300781 -109.851562 16.5625 -112.0625 C 15.832031 -114.269531 14.757812 -115.710938 13.34375 -116.390625 C 11.925781 -117.078125 9.972656 -117.421875 7.484375 -117.421875 L 5.609375 -117.421875 C 5.492188 -117.421875 5.4375 -117.875 5.4375 -118.78125 C 5.4375 -119.570312 5.492188 -119.96875 5.609375 -119.96875 L 56.921875 -119.96875 C 78.554688 -119.96875 94.441406 -115.125 104.578125 -105.4375 C 114.722656 -95.75 119.796875 -80.597656 119.796875 -59.984375 C 119.796875 -39.484375 115.148438 -24.359375 105.859375 -14.609375 C 96.566406 -4.867188 82.125 0 62.53125 0 Z M 40.109375 -5.4375 L 62.53125 -5.4375 C 74.65625 -5.4375 83.601562 -9.851562 89.375 -18.6875 C 95.15625 -27.53125 98.046875 -41.296875 98.046875 -59.984375 C 98.046875 -78.671875 94.734375 -92.429688 88.109375 -101.265625 C 81.484375 -110.109375 71.085938 -114.53125 56.921875 -114.53125 L 40.109375 -114.53125 Z M 40.109375 -5.4375 "/></g></g></g><g fill="#ffffff" fill-opacity="1"><g transform="translate(475.224347, 597.890443)"><g><path d="M -0.6875 0 C -0.789062 0 -0.84375 -0.453125 -0.84375 -1.359375 C -0.84375 -2.148438 -0.789062 -2.546875 -0.6875 -2.546875 L 1.359375 -2.546875 C 4.304688 -2.546875 6.710938 -3.082031 8.578125 -4.15625 C 10.453125 -5.238281 12.296875 -7.59375 14.109375 -11.21875 C 15.921875 -14.84375 18.128906 -20.503906 20.734375 -28.203125 L 52.5 -122.6875 L 57.9375 -122.6875 L 92.609375 -36.1875 L 92.953125 -36.1875 C 96.003906 -28.601562 98.519531 -22.546875 100.5 -18.015625 C 102.488281 -13.484375 104.25 -10.113281 105.78125 -7.90625 C 107.3125 -5.695312 108.835938 -4.25 110.359375 -3.5625 C 111.890625 -2.882812 113.734375 -2.546875 115.890625 -2.546875 L 117.59375 -2.546875 C 117.695312 -2.546875 117.75 -2.09375 117.75 -1.1875 C 117.75 -0.394531 117.695312 0 117.59375 0 L 66.09375 0 C 65.988281 0 65.9375 -0.453125 65.9375 -1.359375 C 65.9375 -2.148438 65.988281 -2.546875 66.09375 -2.546875 L 68.65625 -2.546875 C 71.9375 -2.546875 74.367188 -2.882812 75.953125 -3.5625 C 77.535156 -4.25 78.382812 -5.695312 78.5 -7.90625 C 78.613281 -10.113281 77.960938 -13.484375 76.546875 -18.015625 C 75.128906 -22.546875 72.953125 -28.601562 70.015625 -36.1875 L 68.140625 -41.125 L 31.78125 -41.125 L 27.53125 -28.03125 C 25.257812 -20.445312 23.925781 -14.84375 23.53125 -11.21875 C 23.132812 -7.59375 23.84375 -5.238281 25.65625 -4.15625 C 27.46875 -3.082031 30.414062 -2.546875 34.5 -2.546875 L 37.21875 -2.546875 C 37.332031 -2.546875 37.390625 -2.148438 37.390625 -1.359375 C 37.390625 -0.453125 37.332031 0 37.21875 0 Z M 33.640625 -46.5625 L 66.09375 -46.5625 L 48.59375 -92.953125 Z M 33.640625 -46.5625 "/></g></g></g><g fill="#ffffff" fill-opacity="1"><g transform="translate(593.480241, 597.890443)"><g/></g></g><g fill="#ffffff" fill-opacity="1"><g transform="translate(635.447491, 597.890443)"><g><path d="M 5.609375 -0.171875 C 5.492188 -0.171875 5.4375 -0.625 5.4375 -1.53125 C 5.4375 -2.320312 5.492188 -2.71875 5.609375 -2.71875 L 7.484375 -2.71875 C 9.972656 -2.71875 11.925781 -3.054688 13.34375 -3.734375 C 14.757812 -4.421875 15.832031 -5.867188 16.5625 -8.078125 C 17.300781 -10.285156 17.785156 -13.65625 18.015625 -18.1875 C 18.242188 -22.71875 18.359375 -28.773438 18.359375 -36.359375 L 18.359375 -83.9375 C 18.359375 -91.644531 18.242188 -97.734375 18.015625 -102.203125 C 17.785156 -106.679688 17.300781 -110.023438 16.5625 -112.234375 C 15.832031 -114.441406 14.757812 -115.882812 13.34375 -116.5625 C 11.925781 -117.25 9.972656 -117.59375 7.484375 -117.59375 L 5.609375 -117.59375 C 5.492188 -117.59375 5.4375 -118.046875 5.4375 -118.953125 C 5.4375 -119.742188 5.492188 -120.140625 5.609375 -120.140625 L 58.28125 -120.140625 C 72.445312 -120.140625 82.84375 -117.785156 89.46875 -113.078125 C 96.09375 -108.378906 99.40625 -100.988281 99.40625 -90.90625 C 99.40625 -75.5 90.910156 -66.15625 73.921875 -62.875 C 84.109375 -61.507812 91.640625 -58.503906 96.515625 -53.859375 C 101.390625 -49.222656 103.828125 -42.828125 103.828125 -34.671875 C 103.828125 -22.890625 100.285156 -14.191406 93.203125 -8.578125 C 86.117188 -2.972656 75.046875 -0.171875 59.984375 -0.171875 Z M 40.109375 -64.40625 L 54.71875 -64.40625 C 62.53125 -64.40625 68.304688 -66.554688 72.046875 -70.859375 C 75.785156 -75.160156 77.65625 -81.785156 77.65625 -90.734375 C 77.65625 -98.890625 76.097656 -104.894531 72.984375 -108.75 C 69.867188 -112.601562 64.96875 -114.53125 58.28125 -114.53125 L 40.109375 -114.53125 Z M 40.109375 -5.4375 L 57.78125 -5.4375 C 65.820312 -5.4375 71.707031 -7.785156 75.4375 -12.484375 C 79.175781 -17.191406 81.046875 -24.53125 81.046875 -34.5 C 81.046875 -43.101562 78.695312 -49.414062 74 -53.4375 C 69.300781 -57.457031 61.96875 -59.46875 52 -59.46875 L 40.109375 -59.46875 Z M 40.109375 -5.4375 "/></g></g></g><g fill="#ffffff" fill-opacity="1"><g transform="translate(742.489465, 597.890443)"><g><path d="M -0.6875 0 C -0.789062 0 -0.84375 -0.453125 -0.84375 -1.359375 C -0.84375 -2.148438 -0.789062 -2.546875 -0.6875 -2.546875 L 1.359375 -2.546875 C 4.304688 -2.546875 6.710938 -3.082031 8.578125 -4.15625 C 10.453125 -5.238281 12.296875 -7.59375 14.109375 -11.21875 C 15.921875 -14.84375 18.128906 -20.503906 20.734375 -28.203125 L 52.5 -122.6875 L 57.9375 -122.6875 L 92.609375 -36.1875 L 92.953125 -36.1875 C 96.003906 -28.601562 98.519531 -22.546875 100.5 -18.015625 C 102.488281 -13.484375 104.25 -10.113281 105.78125 -7.90625 C 107.3125 -5.695312 108.835938 -4.25 110.359375 -3.5625 C 111.890625 -2.882812 113.734375 -2.546875 115.890625 -2.546875 L 117.59375 -2.546875 C 117.695312 -2.546875 117.75 -2.09375 117.75 -1.1875 C 117.75 -0.394531 117.695312 0 117.59375 0 L 66.09375 0 C 65.988281 0 65.9375 -0.453125 65.9375 -1.359375 C 65.9375 -2.148438 65.988281 -2.546875 66.09375 -2.546875 L 68.65625 -2.546875 C 71.9375 -2.546875 74.367188 -2.882812 75.953125 -3.5625 C 77.535156 -4.25 78.382812 -5.695312 78.5 -7.90625 C 78.613281 -10.113281 77.960938 -13.484375 76.546875 -18.015625 C 75.128906 -22.546875 72.953125 -28.601562 70.015625 -36.1875 L 68.140625 -41.125 L 31.78125 -41.125 L 27.53125 -28.03125 C 25.257812 -20.445312 23.925781 -14.84375 23.53125 -11.21875 C 23.132812 -7.59375 23.84375 -5.238281 25.65625 -4.15625 C 27.46875 -3.082031 30.414062 -2.546875 34.5 -2.546875 L 37.21875 -2.546875 C 37.332031 -2.546875 37.390625 -2.148438 37.390625 -1.359375 C 37.390625 -0.453125 37.332031 0 37.21875 0 Z M 33.640625 -46.5625 L 66.09375 -46.5625 L 48.59375 -92.953125 Z M 33.640625 -46.5625 "/></g></g></g><g fill="#ffffff" fill-opacity="1"><g transform="translate(860.745359, 597.890443)"><g><path d="M 5.609375 0.171875 C 5.492188 0.171875 5.4375 -0.28125 5.4375 -1.1875 C 5.4375 -1.976562 5.492188 -2.375 5.609375 -2.375 L 7.484375 -2.375 C 9.972656 -2.375 11.925781 -2.710938 13.34375 -3.390625 C 14.757812 -4.078125 15.832031 -5.523438 16.5625 -7.734375 C 17.300781 -9.941406 17.785156 -13.3125 18.015625 -17.84375 C 18.242188 -22.375 18.359375 -28.4375 18.359375 -36.03125 L 18.359375 -83.609375 C 18.359375 -91.304688 18.242188 -97.390625 18.015625 -101.859375 C 17.785156 -106.335938 17.300781 -109.679688 16.5625 -111.890625 C 15.832031 -114.097656 14.757812 -115.539062 13.34375 -116.21875 C 11.925781 -116.90625 9.972656 -117.25 7.484375 -117.25 L 5.609375 -117.25 C 5.492188 -117.25 5.4375 -117.703125 5.4375 -118.609375 C 5.4375 -119.398438 5.492188 -119.796875 5.609375 -119.796875 L 58.28125 -119.796875 C 72.78125 -119.796875 83.425781 -117.21875 90.21875 -112.0625 C 97.019531 -106.90625 100.421875 -98.890625 100.421875 -88.015625 C 100.421875 -79.523438 98.320312 -72.726562 94.125 -67.625 C 89.9375 -62.53125 83.484375 -59.019531 74.765625 -57.09375 L 104 -13.765625 C 106.375 -10.367188 108.039062 -8.019531 109 -6.71875 C 109.96875 -5.414062 111.015625 -4.675781 112.140625 -4.5 C 113.273438 -4.332031 115.144531 -4.25 117.75 -4.25 L 118.609375 -4.25 L 118.609375 0 L 111.125 0.171875 C 105.6875 0.171875 101.296875 0.171875 97.953125 0.171875 C 94.617188 0.171875 91.988281 -0.0507812 90.0625 -0.5 C 88.132812 -0.957031 86.460938 -1.78125 85.046875 -2.96875 C 83.628906 -4.164062 82.128906 -5.953125 80.546875 -8.328125 C 78.960938 -10.703125 76.863281 -13.875 74.25 -17.84375 L 49.953125 -55.0625 L 40.109375 -55.0625 L 40.109375 -36.03125 C 40.109375 -28.4375 40.21875 -22.375 40.4375 -17.84375 C 40.664062 -13.3125 41.117188 -9.941406 41.796875 -7.734375 C 42.484375 -5.523438 43.5625 -4.078125 45.03125 -3.390625 C 46.5 -2.710938 48.484375 -2.375 50.984375 -2.375 L 52.84375 -2.375 C 52.84375 -2.375 52.867188 -2.289062 52.921875 -2.125 C 52.984375 -1.957031 53.015625 -1.644531 53.015625 -1.1875 C 53.015625 -0.738281 52.984375 -0.398438 52.921875 -0.171875 C 52.867188 0.0546875 52.84375 0.171875 52.84375 0.171875 Z M 40.109375 -60.5 L 54.546875 -60.5 C 62.472656 -60.5 68.304688 -62.734375 72.046875 -67.203125 C 75.785156 -71.679688 77.65625 -78.617188 77.65625 -88.015625 C 77.65625 -97.078125 76.097656 -103.734375 72.984375 -107.984375 C 69.867188 -112.234375 64.96875 -114.359375 58.28125 -114.359375 L 40.109375 -114.359375 Z M 40.109375 -60.5 "/></g></g></g><g fill="#ffffff" fill-opacity="1"><g transform="translate(979.171161, 597.890443)"><g><path d="M 58.96875 0.84375 C 47.40625 0.84375 38.566406 -0.597656 32.453125 -3.484375 C 26.335938 -6.367188 22.175781 -10.8125 19.96875 -16.8125 C 17.757812 -22.820312 16.65625 -30.414062 16.65625 -39.59375 L 16.65625 -83.609375 C 16.65625 -91.304688 16.539062 -97.390625 16.3125 -101.859375 C 16.082031 -106.335938 15.597656 -109.679688 14.859375 -111.890625 C 14.128906 -114.097656 13.054688 -115.539062 11.640625 -116.21875 C 10.222656 -116.90625 8.269531 -117.25 5.78125 -117.25 L 3.90625 -117.25 C 3.789062 -117.25 3.734375 -117.703125 3.734375 -118.609375 C 3.734375 -119.398438 3.789062 -119.796875 3.90625 -119.796875 L 51.140625 -119.796875 C 51.140625 -119.796875 51.164062 -119.707031 51.21875 -119.53125 C 51.28125 -119.363281 51.3125 -119.054688 51.3125 -118.609375 C 51.3125 -118.148438 51.28125 -117.804688 51.21875 -117.578125 C 51.164062 -117.359375 51.140625 -117.25 51.140625 -117.25 L 49.28125 -117.25 C 46.789062 -117.25 44.804688 -116.90625 43.328125 -116.21875 C 41.859375 -115.539062 40.78125 -114.097656 40.09375 -111.890625 C 39.414062 -109.679688 38.960938 -106.335938 38.734375 -101.859375 C 38.515625 -97.390625 38.40625 -91.304688 38.40625 -83.609375 L 38.40625 -35.171875 C 38.40625 -28.710938 39.023438 -23.359375 40.265625 -19.109375 C 41.515625 -14.867188 43.863281 -11.726562 47.3125 -9.6875 C 50.769531 -7.644531 55.726562 -6.625 62.1875 -6.625 C 70.6875 -6.625 77.144531 -7.671875 81.5625 -9.765625 C 85.976562 -11.867188 88.976562 -15.128906 90.5625 -19.546875 C 92.15625 -23.960938 92.953125 -29.507812 92.953125 -36.1875 L 92.953125 -81.90625 C 92.953125 -89.945312 92.804688 -96.34375 92.515625 -101.09375 C 92.234375 -105.851562 91.664062 -109.394531 90.8125 -111.71875 C 89.96875 -114.039062 88.695312 -115.539062 87 -116.21875 C 85.300781 -116.90625 82.976562 -117.25 80.03125 -117.25 L 77.65625 -117.25 C 77.539062 -117.25 77.484375 -117.703125 77.484375 -118.609375 C 77.484375 -119.398438 77.539062 -119.796875 77.65625 -119.796875 L 114.015625 -119.796875 C 114.128906 -119.796875 114.1875 -119.398438 114.1875 -118.609375 C 114.1875 -117.703125 114.128906 -117.25 114.015625 -117.25 L 111.8125 -117.25 C 108.519531 -117.25 105.992188 -116.707031 104.234375 -115.625 C 102.484375 -114.550781 101.296875 -112.171875 100.671875 -108.484375 C 100.054688 -104.804688 99.691406 -99.003906 99.578125 -91.078125 L 99.578125 -34.15625 C 99.578125 -26.226562 98.5 -19.65625 96.34375 -14.4375 C 94.195312 -9.226562 90.203125 -5.378906 84.359375 -2.890625 C 78.523438 -0.398438 70.0625 0.84375 58.96875 0.84375 Z M 58.96875 0.84375 "/></g></g></g><g fill="#e4c590" fill-opacity="1"><g transform="translate(137.294414, 667.413075)"><g><path d="M 47.25 0 L 39.859375 0 L 28.015625 -14.265625 L 11.84375 -14.265625 L 11.84375 0 L 5.890625 0 L 5.890625 -42.5625 L 31.84375 -42.5625 C 34.726562 -42.5625 37.34375 -42.078125 39.6875 -41.109375 C 42.03125 -40.140625 43.882812 -38.613281 45.25 -36.53125 C 46.625 -34.445312 47.3125 -31.753906 47.3125 -28.453125 C 47.3125 -24.097656 46.175781 -20.769531 43.90625 -18.46875 C 41.632812 -16.175781 38.75 -14.820312 35.25 -14.40625 Z M 31.84375 -37.03125 L 11.84375 -37.03125 L 11.84375 -19.796875 L 31.84375 -19.796875 C 34.445312 -19.796875 36.679688 -20.457031 38.546875 -21.78125 C 40.421875 -23.101562 41.359375 -25.328125 41.359375 -28.453125 C 41.359375 -31.523438 40.4375 -33.722656 38.59375 -35.046875 C 36.75 -36.367188 34.5 -37.03125 31.84375 -37.03125 Z M 31.84375 -37.03125 "/></g></g></g><g fill="#e4c590" fill-opacity="1"><g transform="translate(188.859802, 667.413075)"><g><path d="M 41.921875 -21.28125 L 41.921875 -42.5625 L 47.875 -42.5625 L 47.875 -21.28125 C 47.875 -16.082031 46.925781 -11.847656 45.03125 -8.578125 C 43.144531 -5.316406 40.582031 -2.929688 37.34375 -1.421875 C 34.101562 0.0859375 30.5 0.84375 26.53125 0.84375 C 22.5625 0.84375 18.96875 0.0859375 15.75 -1.421875 C 12.53125 -2.929688 9.960938 -5.316406 8.046875 -8.578125 C 6.128906 -11.847656 5.171875 -16.082031 5.171875 -21.28125 L 5.171875 -42.5625 L 11.140625 -42.5625 L 11.140625 -21.28125 C 11.140625 -17.351562 11.820312 -14.160156 13.1875 -11.703125 C 14.5625 -9.242188 16.421875 -7.457031 18.765625 -6.34375 C 21.109375 -5.238281 23.695312 -4.6875 26.53125 -4.6875 C 29.363281 -4.6875 31.953125 -5.238281 34.296875 -6.34375 C 36.640625 -7.457031 38.492188 -9.242188 39.859375 -11.703125 C 41.234375 -14.160156 41.921875 -17.351562 41.921875 -21.28125 Z M 41.921875 -21.28125 "/></g></g></g><g fill="#e4c590" fill-opacity="1"><g transform="translate(241.914696, 667.413075)"><g><path d="M 63.84375 0 L 57.890625 0 L 57.890625 -32.625 L 38.015625 0 L 31.78125 0 L 11.921875 -32.625 L 11.921875 0 L 5.953125 0 L 5.953125 -42.5625 L 12.203125 -42.5625 L 34.90625 -5.109375 L 57.671875 -42.5625 L 63.84375 -42.5625 Z M 63.84375 0 "/></g></g></g><g fill="#e4c590" fill-opacity="1"><g transform="translate(311.708835, 667.413075)"><g><path d="M 45.046875 0 L 40.015625 -9.5 L 12.484375 -9.5 L 7.453125 0 L 0.84375 0 L 23.546875 -42.5625 L 29.015625 -42.5625 L 51.640625 0 Z M 37.09375 -15.03125 L 26.3125 -35.546875 L 15.390625 -15.03125 Z M 37.09375 -15.03125 "/></g></g></g><g fill="#e4c590" fill-opacity="1"><g transform="translate(364.1963, 667.413075)"><g><path d="M 49.65625 0 L 43.703125 0 L 43.703125 -18.515625 L 11.921875 -18.515625 L 11.921875 0 L 5.953125 0 L 5.953125 -42.5625 L 11.921875 -42.5625 L 11.921875 -24.046875 L 43.703125 -24.046875 L 43.703125 -42.5625 L 49.65625 -42.5625 Z M 49.65625 0 "/></g></g></g><g fill="#e4c590" fill-opacity="1"><g transform="translate(419.804638, 667.413075)"><g/></g></g><g fill="#e4c590" fill-opacity="1"><g transform="translate(439.664744, 667.413075)"><g><path d="M 63.84375 0 L 57.890625 0 L 57.890625 -32.625 L 38.015625 0 L 31.78125 0 L 11.921875 -32.625 L 11.921875 0 L 5.953125 0 L 5.953125 -42.5625 L 12.203125 -42.5625 L 34.90625 -5.109375 L 57.671875 -42.5625 L 63.84375 -42.5625 Z M 63.84375 0 "/></g></g></g><g fill="#e4c590" fill-opacity="1"><g transform="translate(509.458883, 667.413075)"><g><path d="M 45.046875 0 L 40.015625 -9.5 L 12.484375 -9.5 L 7.453125 0 L 0.84375 0 L 23.546875 -42.5625 L 29.015625 -42.5625 L 51.640625 0 Z M 37.09375 -15.03125 L 26.3125 -35.546875 L 15.390625 -15.03125 Z M 37.09375 -15.03125 "/></g></g></g><g fill="#e4c590" fill-opacity="1"><g transform="translate(561.946336, 667.413075)"><g><path d="M 46.671875 0 L 39.515625 0 L 22.703125 -18.65625 L 11.921875 -18.65625 L 11.921875 0 L 5.953125 0 L 5.953125 -42.5625 L 11.921875 -42.5625 L 11.921875 -23.90625 L 22.625 -23.90625 L 39.515625 -42.5625 L 46.671875 -42.5625 L 27.53125 -21.28125 Z M 46.671875 0 "/></g></g></g><g fill="#e4c590" fill-opacity="1"><g transform="translate(610.958292, 667.413075)"><g><path d="M 45.046875 0 L 40.015625 -9.5 L 12.484375 -9.5 L 7.453125 0 L 0.84375 0 L 23.546875 -42.5625 L 29.015625 -42.5625 L 51.640625 0 Z M 37.09375 -15.03125 L 26.3125 -35.546875 L 15.390625 -15.03125 Z M 37.09375 -15.03125 "/></g></g></g><g fill="#e4c590" fill-opacity="1"><g transform="translate(663.445744, 667.413075)"><g><path d="M 48.375 0 L 42.421875 0 L 11.921875 -34.40625 L 11.921875 0 L 5.953125 0 L 5.953125 -42.5625 L 11.921875 -42.5625 L 42.421875 -8.09375 L 42.421875 -42.5625 L 48.375 -42.5625 Z M 48.375 0 "/></g></g></g><g fill="#e4c590" fill-opacity="1"><g transform="translate(717.77735, 667.413075)"><g/></g></g><g fill="#e4c590" fill-opacity="1"><g transform="translate(737.637456, 667.413075)"><g><path d="M 31.84375 -14.265625 L 11.84375 -14.265625 L 11.84375 0 L 5.890625 0 L 5.890625 -42.5625 L 31.84375 -42.5625 C 34.726562 -42.5625 37.34375 -42.078125 39.6875 -41.109375 C 42.03125 -40.140625 43.882812 -38.613281 45.25 -36.53125 C 46.625 -34.445312 47.3125 -31.753906 47.3125 -28.453125 C 47.3125 -25.085938 46.625 -22.363281 45.25 -20.28125 C 43.882812 -18.207031 42.03125 -16.6875 39.6875 -15.71875 C 37.34375 -14.75 34.726562 -14.265625 31.84375 -14.265625 Z M 31.84375 -37.03125 L 11.84375 -37.03125 L 11.84375 -19.796875 L 31.84375 -19.796875 C 34.445312 -19.796875 36.679688 -20.457031 38.546875 -21.78125 C 40.421875 -23.101562 41.359375 -25.328125 41.359375 -28.453125 C 41.359375 -31.523438 40.4375 -33.722656 38.59375 -35.046875 C 36.75 -36.367188 34.5 -37.03125 31.84375 -37.03125 Z M 31.84375 -37.03125 "/></g></g></g><g fill="#e4c590" fill-opacity="1"><g transform="translate(787.074982, 667.413075)"><g><path d="M 45.046875 0 L 40.015625 -9.5 L 12.484375 -9.5 L 7.453125 0 L 0.84375 0 L 23.546875 -42.5625 L 29.015625 -42.5625 L 51.640625 0 Z M 37.09375 -15.03125 L 26.3125 -35.546875 L 15.390625 -15.03125 Z M 37.09375 -15.03125 "/></g></g></g><g fill="#e4c590" fill-opacity="1"><g transform="translate(839.562435, 667.413075)"><g><path d="M 26.671875 0 L 5.953125 0 L 5.953125 -42.5625 L 26.671875 -42.5625 C 31.023438 -42.5625 34.972656 -41.828125 38.515625 -40.359375 C 42.066406 -38.898438 44.878906 -36.609375 46.953125 -33.484375 C 49.035156 -30.359375 50.078125 -26.289062 50.078125 -21.28125 C 50.078125 -16.269531 49.035156 -12.203125 46.953125 -9.078125 C 44.878906 -5.953125 42.066406 -3.65625 38.515625 -2.1875 C 34.972656 -0.726562 31.023438 0 26.671875 0 Z M 11.921875 -5.53125 L 26.671875 -5.53125 C 29.890625 -5.53125 32.820312 -6.0625 35.46875 -7.125 C 38.113281 -8.1875 40.226562 -9.875 41.8125 -12.1875 C 43.394531 -14.507812 44.1875 -17.539062 44.1875 -21.28125 C 44.1875 -25.0625 43.394531 -28.097656 41.8125 -30.390625 C 40.226562 -32.691406 38.113281 -34.375 35.46875 -35.4375 C 32.820312 -36.5 29.890625 -37.03125 26.671875 -37.03125 L 11.921875 -37.03125 Z M 11.921875 -5.53125 "/></g></g></g><g fill="#e4c590" fill-opacity="1"><g transform="translate(893.397534, 667.413075)"><g><path d="M 45.046875 0 L 40.015625 -9.5 L 12.484375 -9.5 L 7.453125 0 L 0.84375 0 L 23.546875 -42.5625 L 29.015625 -42.5625 L 51.640625 0 Z M 37.09375 -15.03125 L 26.3125 -35.546875 L 15.390625 -15.03125 Z M 37.09375 -15.03125 "/></g></g></g><g fill="#e4c590" fill-opacity="1"><g transform="translate(945.885032, 667.413075)"><g><path d="M 48.375 0 L 42.421875 0 L 11.921875 -34.40625 L 11.921875 0 L 5.953125 0 L 5.953125 -42.5625 L 11.921875 -42.5625 L 42.421875 -8.09375 L 42.421875 -42.5625 L 48.375 -42.5625 Z M 48.375 0 "/></g></g></g><g fill="#e4c590" fill-opacity="1"><g transform="translate(1000.216683, 667.413075)"><g><path d="M 46.671875 0 L 43.5625 0 L 42.484375 -2.203125 C 37.710938 -0.171875 32.675781 0.84375 27.375 0.84375 C 22.976562 0.84375 18.992188 0.0859375 15.421875 -1.421875 C 11.859375 -2.929688 9.023438 -5.304688 6.921875 -8.546875 C 4.816406 -11.785156 3.765625 -16.003906 3.765625 -21.203125 C 3.765625 -26.503906 4.847656 -30.773438 7.015625 -34.015625 C 9.191406 -37.253906 12.113281 -39.628906 15.78125 -41.140625 C 19.445312 -42.648438 23.550781 -43.40625 28.09375 -43.40625 C 31.164062 -43.40625 34.175781 -43.085938 37.125 -42.453125 C 40.082031 -41.816406 42.890625 -40.882812 45.546875 -39.65625 L 43.90625 -34.46875 C 38.945312 -36.738281 33.722656 -37.875 28.234375 -37.875 C 24.773438 -37.875 21.640625 -37.316406 18.828125 -36.203125 C 16.015625 -35.097656 13.789062 -33.316406 12.15625 -30.859375 C 10.53125 -28.398438 9.71875 -25.179688 9.71875 -21.203125 C 9.71875 -17.285156 10.507812 -14.09375 12.09375 -11.625 C 13.675781 -9.164062 15.828125 -7.367188 18.546875 -6.234375 C 21.265625 -5.109375 24.28125 -4.546875 27.59375 -4.546875 C 32.375 -4.546875 36.984375 -5.515625 41.421875 -7.453125 L 41.421875 -18.875 L 24.125 -18.875 L 24.125 -23.6875 L 46.671875 -23.6875 Z M 46.671875 0 "/></g></g></g></svg>